<svg width="16" height="17" viewBox="0 0 16 17" fill="none" xmlns="http://www.w3.org/2000/svg">
<path d="M15.4226 11.865C14.9888 11.1371 14.3442 9.07751 14.3442 6.38834C14.3442 4.77334 13.6855 3.22417 12.513 2.08209C11.3409 0.940007 9.75089 0.29834 8.09297 0.29834C6.43505 0.29834 4.84505 0.940006 3.67255 2.08167C2.50047 3.22417 1.84172 4.77334 1.84172 6.38834C1.84172 9.07876 1.1963 11.1371 0.762554 11.865C0.652331 12.0492 0.593773 12.2596 0.59304 12.4742C0.592307 12.6888 0.649425 12.8997 0.758387 13.0846C0.867971 13.2704 1.02589 13.425 1.21589 13.5321C1.40691 13.6397 1.62246 13.6963 1.84172 13.6963H5.03047C5.1774 14.3881 5.56148 15.0068 6.1163 15.4454C6.6788 15.8908 7.3755 16.1327 8.09297 16.1317C8.8103 16.1326 9.50683 15.8907 10.0692 15.4454C10.6241 15.0068 11.0082 14.3881 11.1551 13.6963H14.3442C14.5638 13.6963 14.7796 13.6392 14.9696 13.5317C15.1587 13.4253 15.3163 13.2709 15.4267 13.0842C15.5356 12.8993 15.5927 12.6886 15.592 12.474C15.5913 12.2595 15.5327 12.0491 15.4226 11.865ZM8.09255 14.9142C7.70608 14.9146 7.3286 14.7976 7.01005 14.5788C6.69545 14.363 6.45599 14.0545 6.32505 13.6963H9.86005C9.72914 14.0545 9.48967 14.3631 9.17505 14.5788C8.85649 14.7975 8.47902 14.9145 8.09255 14.9142Z" fill="#636E82"/>
</svg>
