<svg width="19" height="15" viewBox="0 0 19 15" fill="none" xmlns="http://www.w3.org/2000/svg">
<path d="M16.7067 0.131723H1.89838C1.54453 0.13068 1.20382 0.265683 0.946718 0.508807C0.822797 0.626051 0.723966 0.767231 0.656212 0.923795C0.588459 1.08036 0.553193 1.24905 0.552551 1.41964V13.0105C0.552551 13.3521 0.694218 13.6796 0.946718 13.9213C1.19922 14.163 1.54172 14.2984 1.8988 14.2984H16.7063C17.0603 14.2995 17.4012 14.1645 17.6584 13.9213C17.9109 13.6796 18.0526 13.3521 18.0526 13.0105V1.41964C18.0526 1.07797 17.9109 0.750474 17.6584 0.508807C17.4013 0.265436 17.0607 0.130401 16.7067 0.131723ZM15.3601 11.0788C15.5388 11.0788 15.7101 11.1463 15.8363 11.2671C15.9626 11.388 16.0334 11.5517 16.0334 11.7226C16.0334 11.8934 15.9626 12.0571 15.8363 12.178C15.7101 12.2988 15.5388 12.3667 15.3605 12.3667H3.24463C3.06588 12.3667 2.89463 12.2988 2.76838 12.178C2.70641 12.1194 2.65699 12.0488 2.62311 11.9705C2.58924 11.8922 2.57161 11.8079 2.5713 11.7226V2.70756C2.5713 2.53672 2.64213 2.37297 2.76838 2.25214C2.89463 2.13131 3.06588 2.06339 3.24463 2.06339C3.42297 2.06339 3.59422 2.13131 3.72047 2.25214C3.84672 2.37297 3.91755 2.53672 3.91755 2.70756V7.77214L6.85213 5.43214C6.96539 5.34281 7.10359 5.29086 7.24765 5.28347C7.39171 5.27608 7.5345 5.31362 7.6563 5.39089L11.2742 7.70047L14.9267 4.78797C15.0659 4.67819 15.2419 4.626 15.4184 4.64214C15.5963 4.65756 15.7605 4.73964 15.8746 4.87131C15.9888 5.00256 16.0442 5.17172 16.0276 5.34214C16.019 5.42723 15.9934 5.50972 15.9522 5.58468C15.9111 5.65964 15.8552 5.72552 15.788 5.77839L11.7496 8.99797C11.6364 9.08736 11.4982 9.13935 11.3541 9.14674C11.2101 9.15413 11.0672 9.11656 10.9455 9.03922L7.32755 6.72964L3.91755 9.44881V11.0788H15.3601Z" fill="#636E82"/>
</svg>
