<svg width="18" height="14" viewBox="0 0 18 14" fill="none" xmlns="http://www.w3.org/2000/svg">
<path d="M13.1613 4.48586V4.09003C13.1613 2.30878 10.5342 0.965027 7.05046 0.965027C3.56629 0.965027 0.939209 2.30878 0.939209 4.09003V6.93086C0.939209 8.41461 2.76213 9.59336 5.38379 9.94669V10.34C5.38379 12.1213 8.01088 13.465 11.4946 13.465C14.9788 13.465 17.6059 12.1213 17.6059 10.34V7.49919C17.6059 6.02878 15.8405 4.84878 13.1613 4.48544V4.48586ZM4.27254 8.55503C2.91213 8.16628 2.05046 7.52628 2.05046 6.93044V5.93169C2.61713 6.34211 3.37588 6.67336 4.27254 6.89544V8.55503ZM9.82796 6.89503C10.7246 6.67253 11.4838 6.34169 12.0505 5.93128V6.93044C12.0505 7.52628 11.1884 8.16628 9.82796 8.55461V6.89503ZM8.71713 11.9638C7.35671 11.5754 6.49463 10.9354 6.49463 10.3396V10.0438C6.94343 10.0627 7.39292 10.0586 7.84129 10.0313C8.12838 10.1354 8.42046 10.225 8.71713 10.2979V11.9638ZM8.71713 8.79503C8.16504 8.87836 7.60796 8.92003 7.05046 8.91919C6.49257 8.91985 5.93543 8.87835 5.38379 8.79503V7.10544C5.93629 7.17878 6.49296 7.21544 7.05046 7.21461C7.60783 7.21546 8.16463 7.17899 8.71713 7.10544V8.79503ZM13.1613 12.2038C12.0564 12.3695 10.9329 12.3695 9.82796 12.2038V10.5109C10.9339 10.6613 12.055 10.6627 13.1613 10.515V12.2046V12.2038ZM16.4946 10.3396C16.4946 10.9354 15.633 11.5754 14.2725 11.9638V10.3042C15.1692 10.0817 15.928 9.75086 16.4946 9.34044V10.3396Z" fill="white"/>
</svg>
