<svg width="21" height="21" viewBox="0 0 21 21" fill="none" xmlns="http://www.w3.org/2000/svg">
<path d="M18.8475 3.73334V3.74376L14.7338 17.3138C14.667 17.5503 14.5245 17.7583 14.3282 17.9061C14.1318 18.0538 13.8924 18.1331 13.6467 18.1317C13.4328 18.1323 13.2231 18.0717 13.0425 17.9571C12.8619 17.8424 12.7179 17.6785 12.6275 17.4846L10.1033 12.155C10.0785 12.1023 10.0705 12.0432 10.0805 11.9858C10.0905 11.9283 10.118 11.8754 10.1592 11.8342L14.2067 7.78501C14.3128 7.67892 14.3724 7.53504 14.3724 7.38501C14.3724 7.23498 14.3128 7.0911 14.2067 6.98501C14.1006 6.87892 13.9567 6.81933 13.8067 6.81933C13.6567 6.81933 13.5128 6.87892 13.4067 6.98501L9.35335 11.0333C9.31222 11.0747 9.2593 11.1023 9.20186 11.1124C9.14441 11.1224 9.08526 11.1145 9.03252 11.0896L3.73085 8.57751C3.52264 8.48209 3.34743 8.32701 3.22741 8.13194C3.1074 7.93686 3.04798 7.71055 3.05668 7.48168C3.06822 7.24642 3.15339 7.02073 3.30016 6.83651C3.44692 6.65228 3.64787 6.51883 3.8746 6.45501L17.4417 2.34043H17.4525C17.6457 2.28615 17.8499 2.28426 18.044 2.33496C18.2382 2.38565 18.4154 2.4871 18.5574 2.6289C18.6994 2.77069 18.8011 2.94772 18.8521 3.14181C18.9031 3.3359 18.9015 3.54007 18.8475 3.73334Z" fill="#636E82"/>
</svg>
